<svg width="27" height="28" xmlns="http://www.w3.org/2000/svg"><g><g stroke="none" fill="#fff"><path d="M12.986 0h1.796v11.039h-1.796zM5.352 4.259h2.053v5.759H5.352zM20.236 17.818h1.732v6.119h-1.732zM12.73 17.398h1.732v10.619H12.73z"/><path d="M0 20.222l10.306-5.564 1.012 1.64-10.306 5.564zM16.983 14.958l10.19 5.5-1.041 1.686-10.19-5.501zM8.362.719l5.914 4.018-1.122 1.444L7.24 2.163z"/><path d="M1.53 14.588l4.785 2.379-.959 1.686-4.784-2.38zM.573 11.626l5.048-2.51.918 1.614-5.048 2.51z"/><path d="M1.233 5.85l10.082 5.665-1.014 1.578L.22 7.428zM14.4 21.485l4.773 2.578-.898 1.454-4.774-2.577z"/><path d="M7.833 24.037l4.96-2.678.953 1.545-4.96 2.677zM10.099 11.339h1.347v4.02h-1.347zM15.873 12.359h1.54v3.12h-1.54z"/><path d="M13.148 16.667l3.344-1.954.907 1.357-3.344 1.954z"/><path d="M10.866 14.722l3.383 1.683-.803 1.412-3.384-1.682zM10.065 11.949l3.524-1.827.787 1.328-3.524 1.827z"/><path d="M14.412 10.436l3.055 1.716-.767 1.195-3.055-1.717z"/><path d="M14.917 11.27l5.11-2.872.385.6-5.11 2.87zM16.377 11.601l9.684-5.441.35.546-9.683 5.441zM16.475 12.527l4.677-2.628.391.608-4.677 2.628zM18.036 2.462l.398.573-3.874 2.352-.398-.572z"/><ellipse ry=".66" rx=".706" cy="8.399" cx="20.3"/><ellipse ry=".66" rx=".706" cy="6.059" cx="26.523"/><ellipse ry=".66" rx=".706" cy="12.419" cx="26.458"/><ellipse ry=".66" rx=".706" cy="16.138" cx="25.689"/><ellipse ry=".63" rx=".642" cy="2.43" cx="18.568"/><ellipse ry=".6" rx=".609" cy="10.199" cx="21.679"/><path d="M21.268 17.902l3.928-2.036.384.649-3.928 2.036z"/><ellipse ry=".63" rx=".642" cy="3.21" cx="20.364"/><path d="M22.01 9.912l4.424 2.109-.39.717-4.425-2.108zM20.043 3.3h.577v4.919h-.577z"/></g></g></svg>